# xmcd CD database file
#
# Track frame offsets:
#	150
#	3353
#	8740
#	13529
#	22244
#	24979
#	35176
#	39861
#	46678
#	52429
#	57946
#	63801
#	72360
#	84767
#	91168
#	97985
#	106128
#	109773
#	122648
#	129803
#
# Disc length: 1824 seconds
#
# Revision: 2
# Processed by: cddbd v1.5.2PL0 Copyright (c) Steve Scherf et al.
# Submitted via: CDex 1.51
#
DISCID=ee071e14
DTITLE=Various Artist - 60 Happy Toddler Tunes [CD3]
DYEAR=2004
DGENRE=Childrens
TTITLE0=Do You Know The Muffin Man
TTITLE1=Old MacDonald Had A Farm
TTITLE2=Yankee Doodle
TTITLE3=The Chicken Dance
TTITLE4=Head And Shoulders
TTITLE5=I've Been Working On The Railroad
TTITLE6=Little Miss Muffet
TTITLE7=When You Wish Upon A Star
TTITLE8=Whet Did Delaware
TTITLE9=I'm Bringing Home A Baby Bumble Bee
TTITLE10=Fiddle Dee Dee
TTITLE11=Rock A Bye Baby
TTITLE12=Little Peter Rabbit
TTITLE13=The Old Grey Mare
TTITLE14=John Jacob Jingleheimer Schmidt
TTITLE15=Barnyard Song
TTITLE16=Old Woman Who Lived In A Shoe
TTITLE17=Found A Peanut
TTITLE18=Sippin' Cider Through A Straw
TTITLE19=Go To Sleep
EXTD=YEAR: 2004
EXTT0=
EXTT1=
EXTT2=
EXTT3=
EXTT4=
EXTT5=
EXTT6=
EXTT7=
EXTT8=
EXTT9=
EXTT10=
EXTT11=
EXTT12=
EXTT13=
EXTT14=
EXTT15=
EXTT16=
EXTT17=
EXTT18=
EXTT19=
PLAYORDER=
